<?xml version="1.0" encoding="utf-8"?>
<!-- Generator: Adobe Illustrator 25.1.0, SVG Export Plug-In . SVG Version: 6.00 Build 0)  -->
<svg version="1.1" id="Livello_1" xmlns="http://www.w3.org/2000/svg" xmlns:xlink="http://www.w3.org/1999/xlink" x="0px" y="0px"
	 viewBox="0 0 210.3 198.4" style="enable-background:new 0 0 210.3 198.4;" xml:space="preserve">
<style type="text/css">
	.st0{fill:#911837;}
	.st1{fill-rule:evenodd;clip-rule:evenodd;fill:#161511;}
</style>
<g>
	<g>
		<path class="st0" d="M27.2,144.3c0,1.2,0.1,2,0.4,2.5c0.2,0.5,0.7,0.9,1.3,1.1c0.6,0.2,1.6,0.3,3,0.4v0.9
			c-1.6-0.1-3.9-0.1-6.8-0.1c-2.7,0-4.7,0-6,0.1v-0.9c1.1,0,1.9-0.2,2.4-0.4c0.5-0.2,0.9-0.6,1-1.1c0.2-0.5,0.3-1.4,0.3-2.5v-23.1
			c0-1.2-0.1-2-0.3-2.5c-0.2-0.5-0.5-0.9-1-1.1c-0.5-0.2-1.3-0.3-2.4-0.4v-0.9c1.3,0.1,3.2,0.1,5.7,0.1c1.2,0,2.6,0,4,0
			c1.5,0,2.5,0,3,0c2.4,0,4.5,0.4,6.2,1.1c1.7,0.8,2.9,1.8,3.8,3.2c0.8,1.4,1.3,3,1.3,4.8c0,1.7-0.4,3.3-1.1,4.9
			c-0.8,1.6-2,2.9-3.9,3.9c-1.8,1-4.2,1.6-7.2,1.6h-3.6V144.3z M36.7,132.5c1.2-1.6,1.7-3.8,1.7-6.6c0-2-0.3-3.6-0.8-4.9
			c-0.5-1.3-1.3-2.3-2.5-2.9c-1.1-0.6-2.6-1-4.5-1c-1,0-1.7,0.1-2.2,0.3c-0.5,0.2-0.8,0.6-1,1.2c-0.2,0.6-0.3,1.4-0.3,2.5V135h3.1
			C33.4,135,35.5,134.1,36.7,132.5z"/>
		<path class="st0" d="M70.2,143.3c0,1.8,0.1,3.8,0.3,6c-2.1-0.1-5.7-0.1-10.7-0.1c-6,0-10.5,0-13.5,0.1v-0.9c1.1,0,1.9-0.2,2.5-0.4
			c0.5-0.2,0.9-0.6,1-1.1c0.2-0.5,0.3-1.4,0.3-2.5v-23.1c0-1.2-0.1-2-0.3-2.5c-0.2-0.5-0.5-0.9-1-1.1c-0.5-0.2-1.3-0.3-2.5-0.4v-0.9
			c3.1,0.1,7.6,0.1,13.5,0.1c4.6,0,7.8,0,9.7-0.1c-0.2,2-0.3,3.9-0.3,5.5c0,1.2,0.1,2.2,0.1,2.9h-1.1c-0.2-2-0.5-3.5-0.8-4.5
			c-0.3-1-0.9-1.7-1.7-2.1c-0.8-0.5-2-0.7-3.7-0.7h-3.9c-1.1,0-1.9,0.1-2.5,0.3c-0.5,0.2-0.9,0.5-1,1.1c-0.2,0.5-0.3,1.4-0.3,2.5v11
			h3.1c1.6,0,2.6-0.5,3.1-1.4c0.5-0.9,0.8-1.9,1-2.9c0.1-1,0.2-1.6,0.3-1.9h1.1c-0.1,1.5-0.2,3-0.2,4.4l0,2.2c0,1.6,0.1,3.8,0.3,6.6
			H62c0-0.2-0.1-1-0.3-2.2c-0.1-1.3-0.6-2.3-1.3-2.9c-0.7-0.7-1.7-1-2.9-1h-3.1v11.2c0,1.2,0.1,2,0.3,2.5c0.2,0.5,0.5,0.9,1,1.1
			c0.5,0.2,1.3,0.3,2.5,0.3h3.4c1.9,0,3.4-0.3,4.4-0.8c1-0.5,1.7-1.3,2.2-2.5c0.4-1.1,0.8-2.8,1-5h1.1
			C70.3,140.7,70.2,141.8,70.2,143.3z"/>
		<path class="st0" d="M100.2,147.4c-0.2-0.6-0.5-0.9-0.9-0.9c-0.2,0-0.4,0.1-0.6,0.1c-0.2,0.1-0.5,0.3-1,0.6
			c-1.1,0.8-2.2,1.5-3.4,1.9c-1.2,0.4-2.5,0.6-3.9,0.6c-3.2,0-5.9-0.7-8.2-2c-2.3-1.3-4-3.2-5.2-5.7c-1.2-2.5-1.8-5.4-1.8-8.9
			c0-3.6,0.6-6.7,1.9-9.4c1.3-2.7,3.1-4.7,5.3-6.2c2.3-1.4,4.9-2.2,7.7-2.2c1.3,0,2.4,0.1,3.4,0.4c1,0.3,1.8,0.6,2.5,1
			c0.7,0.4,1.6,1,2.5,1.6c0.4,0.3,0.7,0.5,0.9,0.5c0.6,0,1-0.9,1.2-2.8h1.1c-0.1,2-0.2,5.6-0.2,10.7h-1.1c-0.3-1.7-0.6-3-0.9-4.1
			c-0.3-1.1-0.8-2-1.5-2.8c-0.9-1.1-2.1-2-3.5-2.7c-1.4-0.7-2.9-1-4.5-1c-2.1,0-3.9,0.7-5.4,2c-1.6,1.3-2.7,3.2-3.6,5.7
			c-0.9,2.5-1.3,5.3-1.3,8.7c0,3.7,0.4,6.8,1.2,9.2c0.8,2.4,2,4.1,3.6,5.3c1.6,1.1,3.7,1.7,6.3,1.7c1.9,0,3.5-0.5,4.8-1.5
			c0.6-0.4,0.9-0.7,1.1-1.1c0.2-0.4,0.3-0.8,0.3-1.5v-4.5c0-1.3-0.1-2.2-0.4-2.8c-0.2-0.6-0.7-1-1.3-1.2c-0.6-0.2-1.6-0.4-3-0.4V135
			c1.5,0.1,3.7,0.2,6.6,0.2c2.2,0,3.8-0.1,4.8-0.2v0.9c-0.7,0.1-1.2,0.2-1.6,0.4c-0.3,0.2-0.5,0.5-0.6,1.1c-0.1,0.5-0.2,1.4-0.2,2.6
			v9.2h-0.9C100.6,148.6,100.5,148,100.2,147.4z"/>
		<path class="st0" d="M135.2,148.3v0.9c-1.3-0.1-2.9-0.1-5-0.1c-2.6,0-4.6,0-5.9,0.1v-0.9c1.2,0,2-0.2,2.5-0.4
			c0.5-0.2,0.8-0.7,0.8-1.3c0-0.5-0.2-1.3-0.5-2.2l-2.9-7.6h-11.2l-1.9,4.9c-0.6,1.6-0.9,2.9-0.9,3.8c0,1,0.3,1.7,1,2.1
			c0.7,0.4,1.7,0.6,3.1,0.7v0.9c-1.8-0.1-3.6-0.1-5.4-0.1c-1.4,0-2.6,0-3.5,0.1v-0.9c1.5-0.3,2.8-1.7,3.7-4l11-28.2h0.7l11.3,29.3
			C132.7,147.2,133.8,148.2,135.2,148.3z M118.5,121.9l-5.3,13.9h10.6L118.5,121.9z"/>
		<path class="st0" d="M141.3,146c1.3,1.9,3.4,2.9,6.2,2.9c1.1,0,2-0.2,3-0.7c0.9-0.4,1.7-1.1,2.2-2.1c0.6-0.9,0.8-2.1,0.8-3.5
			c0-1.2-0.3-2.3-0.9-3.2c-0.6-0.9-1.4-1.8-2.4-2.6c-1-0.8-2.3-1.7-4-2.7c-1.8-1.1-3.3-2.1-4.5-3c-1.1-0.9-2-1.9-2.8-3.2
			c-0.7-1.2-1.1-2.7-1.1-4.3c0-1.8,0.4-3.2,1.2-4.5c0.8-1.2,1.9-2.1,3.2-2.7c1.3-0.6,2.8-0.9,4.4-0.9c1,0,1.8,0.1,2.5,0.2
			c0.7,0.2,1.3,0.3,1.7,0.6c0.5,0.2,1,0.5,1.5,0.9c0.7,0.4,1.2,0.7,1.6,0.7c0.3,0,0.5-0.2,0.7-0.5c0.2-0.3,0.3-0.8,0.4-1.6h1.1
			c-0.2,1.8-0.2,5-0.2,9.5h-1.1c-0.1-1.6-0.5-3.1-1-4.4c-0.6-1.3-1.4-2.4-2.5-3.3c-1.1-0.8-2.5-1.3-4.1-1.3c-1.1,0-2.1,0.2-2.9,0.7
			c-0.9,0.5-1.5,1.1-2,1.9c-0.5,0.8-0.7,1.8-0.7,2.8c0,1.7,0.5,3,1.5,4.1c1,1,2.2,2,3.6,2.8c1.4,0.8,2.3,1.4,2.7,1.7
			c2,1.2,3.5,2.3,4.6,3.2c1.1,0.9,2,1.9,2.7,3.1c0.7,1.2,1,2.6,1,4.2c0,1.9-0.4,3.5-1.3,4.8c-0.9,1.3-2.1,2.3-3.6,3
			c-1.5,0.7-3.2,1-5,1c-1.5,0-2.7-0.2-3.7-0.5c-1-0.3-1.8-0.7-2.7-1.3c-0.7-0.4-1.2-0.7-1.6-0.7c-0.3,0-0.5,0.2-0.7,0.5
			c-0.1,0.3-0.3,0.8-0.4,1.6h-1.1c0.1-1.7,0.2-5.4,0.2-11.2h1.1C139.2,141.5,140,144.1,141.3,146z"/>
		<path class="st0" d="M185,117.6c2.2,1.3,3.9,3.3,5.2,5.8c1.2,2.5,1.8,5.6,1.8,9.1c0,3.4-0.6,6.5-1.9,9.1c-1.3,2.6-3,4.7-5.3,6.1
			c-2.2,1.5-4.8,2.2-7.7,2.2c-3,0-5.5-0.7-7.8-2c-2.2-1.3-3.9-3.3-5.2-5.8c-1.2-2.5-1.8-5.6-1.8-9.1c0-3.4,0.6-6.5,1.9-9.1
			c1.3-2.6,3-4.7,5.3-6.1c2.2-1.5,4.8-2.2,7.7-2.2C180.2,115.6,182.8,116.3,185,117.6z M171.8,118.5c-1.5,1.4-2.7,3.3-3.5,5.8
			c-0.8,2.5-1.2,5.3-1.2,8.5c0,3.2,0.5,6.1,1.4,8.5c0.9,2.5,2.1,4.3,3.7,5.7c1.6,1.3,3.3,2,5.2,2c2,0,3.7-0.7,5.2-2.1
			c1.5-1.4,2.7-3.3,3.5-5.8c0.8-2.5,1.2-5.3,1.2-8.5c0-3.2-0.5-6.1-1.4-8.5c-0.9-2.5-2.2-4.3-3.7-5.7c-1.6-1.3-3.3-2-5.2-2
			C175.1,116.4,173.3,117.1,171.8,118.5z"/>
	</g>
	<path class="st1" d="M183.3,79.9c-0.4-0.7-2,0.3-5.2,2.2c-7.2,4.2-22.2,12.7-48.2,15c-0.8,0.1-1.5,0.1-2.3,0.2
		c2.3-0.5,3.9-0.8,3.9-0.8c9-1.7,16.5-4.2,22.9-6.9c6.1-3.1,9.8-6.1,13.8-9.4c8.5-6.9,13.1-17.2,12.5-17.9c-0.5-0.7-2,0.7-4.9,3.3
		c-6.5,5.7-20.2,17.4-46.3,24.8c-6.4,1.8-11.8,3.1-16.5,4.1c7.1-2.5,18.2-6.6,18.2-6.6c8.5-3,15.5-6.5,21.3-10.1
		c5.5-3.9,8.7-7.4,12.1-11.2c7.3-8,10.2-18.6,9.6-19.3c-0.6-0.6-1.8,1-4.2,3.9c-5.5,6.5-17.1,19.8-41.4,30.9
		c-8.4,3.8-15.1,6.3-20.4,8.2c-0.9,0.3-2.8,1-2.8,1c3-1.1,21.1-10.3,21.1-10.3c7.6-3.7,13.8-7.7,18.9-11.7
		c4.8-4.2,7.4-7.8,10.2-11.8c6-8.2,7.7-18.6,7-19.1c-0.6-0.5-1.6,1.1-3.6,4.1c-4.5,6.7-14,20.4-35.7,33.3
		c-7.5,4.5-13.5,7.5-18.3,9.9c-1.9,0.9-3.7,1.9-5.2,2.9c2.1-2.2,5.2-4,9.7-7c5.3-3.2,11.6-7.1,11.6-7.1c6.6-4,11.9-8.2,16.1-12.2
		c3.9-4.2,6-7.7,8.2-11.5c4.7-8,5.3-17.5,4.7-17.9c-0.6-0.4-1.4,1.1-2.9,4c-3.5,6.5-10.9,19.7-29.5,33.4c-6.4,4.7-11.6,8-15.8,10.6
		c-1.6,1-3.1,2-4.3,3c-3.8-2.2-9.6-8.5-9.8-11.7c-0.2-3.6,0.9-6.4,2.5-6.3c1.6,0.1,2.8,1.1,5.1,1.6c2.3,0.5,2.6-1.1,6.9-1.4
		c4.4-0.3,6.5,0.2,8.3,0.8c1.9,0.7,3.2,0.9,5.6-0.8c2.4-1.7,2.5-4.6,0.1-6.4c-5.2-3.9-13.9-8.9-16.3-10.6c-2.3-1.6-4.8-3-6.1-3.6
		l-1.1-0.8l-0.3-5.6l-2.6,2.4C88.5,40,88.8,36,88.8,36c-3.3,1.6-5.2,6.6-5.6,7.8c-0.9-0.6-3.6-1.4-11.7,1.6c0,0,1.3,0.7,6.8,0.2
		c0,0-4.9,1.2-5.3,2c0,0,1.3,0,2.4,0.2c-0.4,0.3-0.8,0.6-1.2,1c-1.9,0.2-4.4,0.2-5.1-1.2c0,0,0,2.5,2.6,3.9c0,0-0.1,0.1-0.1,0.1
		c-0.7,0.2-2.9,1-3.2,1.8c0,0,0.6-0.4,1.8,0c-0.2,0.2-0.4,0.5-0.5,0.7c-2.3,0.6-7,1.4-8.7-1.9c0,0,1,6.1,6.6,5.1
		c-0.1,0.2-0.3,0.4-0.4,0.6c0,0,0,0,0,0c-0.5,0.3-1,0.5-1.5,0.5c0,0,0,0.6,0.7,1.1c0,0.1-0.1,0.1-0.1,0.2c-1.1,0-3.8,0.4-7.6,3.8
		c0,0,3.1-0.8,5.9-1.8c0,0-2,3.9-6.4,5.3c0,0,1.5,1,4.6-0.9c0,0-1.2,1.3-0.9,3l1.6-1c0,0.2-0.1,0.4-0.1,0.6
		c-0.6,0.7-1.6,1.8-3.5,2.7c0,0,1.4,0.7,3.1,0.3c0,0.1,0,0.2,0,0.3c-1.2,0.9-4.1,2.8-4.5,5c0,0,3.2-1.8,3.2-1.7c0,0,0,0,0,0
		c0,0.3-1.4,3.1-1.2,5.8l1.9-1.4l0.4-0.4c0.8,10.8,5.3,20.6,7.1,23.8l-9.2,2.7h91.1l-9.8-2.7c4.1-0.4,8.3-1.2,11.8-2
		c6.3-1.8,10.4-4.1,14.8-6.5C177.4,89.8,183.6,80.7,183.3,79.9z"/>
	<g>
		<path d="M19.1,163.8v-7.2h1.2v7.1c0,2.2,1.1,3.3,2.9,3.3c1.7,0,2.9-1.1,2.9-3.3v-7.2h1.2v7.1c0,2.9-1.6,4.5-4.1,4.5
			C20.8,168.2,19.1,166.7,19.1,163.8z"/>
		<path d="M31.1,159.5h1.2v1.4c0.5-0.8,1.2-1.6,2.5-1.6c1.7,0,2.8,1.2,2.8,3.1v5.6h-1.2v-5.2c0-1.5-0.7-2.4-2-2.4
			c-1.2,0-2.2,1-2.2,2.4v5.2h-1.2V159.5z"/>
		<path d="M41.2,156.4h1.3v1.4h-1.3V156.4z M41.3,159.5h1.2v8.5h-1.2V159.5z"/>
		<path d="M45.6,159.5h1.3l2.4,7l2.4-7h1.2l-3.1,8.6h-1.1L45.6,159.5z"/>
		<path d="M55,163.9L55,163.9c0-2.7,1.5-4.5,3.5-4.5c2.1,0,3.4,1.8,3.4,4.4c0,0.1,0,0.3,0,0.5h-5.7c0.1,1.9,1.3,2.9,2.6,2.9
			c0.9,0,1.6-0.4,2.2-1l0.7,0.8c-0.8,0.8-1.6,1.3-2.9,1.3C56.7,168.2,55,166.6,55,163.9z M60.7,163.4c-0.1-1.6-0.8-2.9-2.2-2.9
			c-1.3,0-2.2,1.2-2.3,2.9H60.7z"/>
		<path d="M65.1,159.5h1.2v1.9c0.5-1.2,1.5-2.1,2.9-2v1.3h-0.1c-1.6,0-2.9,1.1-2.9,3.3v4h-1.2V159.5z"/>
		<path d="M71.4,167l0.6-0.9c0.8,0.7,1.6,1,2.5,1c0.9,0,1.6-0.5,1.6-1.3v0c0-0.8-0.7-1.1-1.8-1.6c-1.4-0.6-2.4-1.1-2.4-2.4v0
			c0-1.4,1.1-2.3,2.6-2.3c1,0,2,0.4,2.7,0.9l-0.6,0.9c-0.7-0.5-1.4-0.8-2.1-0.8c-0.9,0-1.5,0.5-1.5,1.2v0c0,0.7,0.7,1.1,1.9,1.6
			c1.4,0.6,2.4,1.2,2.4,2.5v0c0,1.5-1.2,2.4-2.8,2.4C73.4,168.2,72.3,167.8,71.4,167z"/>
		<path d="M80.5,156.4h1.3v1.4h-1.3V156.4z M80.5,159.5h1.2v8.5h-1.2V159.5z"/>
		<path d="M85.9,166.1v-5.5h-1v-1h1v-2.5h1.2v2.5h2.2v1h-2.2v5.3c0,0.9,0.5,1.2,1.2,1.2c0.3,0,0.7-0.1,1-0.2v1
			c-0.4,0.2-0.8,0.3-1.3,0.3C86.8,168.2,85.9,167.6,85.9,166.1z"/>
		<path d="M91.9,165.6L91.9,165.6c0-1.8,1.3-2.8,3.1-2.8c0.9,0,1.6,0.1,2.2,0.3v-0.5c0-1.4-0.8-2.1-2.2-2.1c-0.8,0-1.6,0.3-2.2,0.6
			l-0.4-1c0.8-0.4,1.6-0.7,2.7-0.7c1,0,1.8,0.3,2.4,0.8c0.5,0.5,0.8,1.3,0.8,2.3v5.5h-1.2v-1.2c-0.5,0.8-1.3,1.4-2.6,1.4
			C93.2,168.2,91.9,167.3,91.9,165.6z M97.3,165.1V164c-0.5-0.2-1.2-0.3-2.1-0.3c-1.4,0-2.1,0.7-2.1,1.8v0c0,1.1,0.8,1.7,1.8,1.7
			C96.2,167.3,97.3,166.3,97.3,165.1z M93.3,156.7l1.2-0.6l1.4,2.3H95L93.3,156.7z"/>
		<path d="M110.2,157.8H107v-1.1h7.6v1.1h-3.2v10.3h-1.2V157.8z"/>
		<path d="M115.7,163.9L115.7,163.9c0-2.7,1.5-4.5,3.5-4.5c2.1,0,3.4,1.8,3.4,4.4c0,0.1,0,0.3,0,0.5h-5.7c0.1,1.9,1.3,2.9,2.6,2.9
			c0.9,0,1.6-0.4,2.2-1l0.7,0.8c-0.8,0.8-1.6,1.3-2.9,1.3C117.4,168.2,115.7,166.6,115.7,163.9z M121.5,163.4
			c-0.1-1.6-0.8-2.9-2.2-2.9c-1.3,0-2.2,1.2-2.3,2.9H121.5z"/>
		<path d="M125.9,156.3h1.2v11.8h-1.2V156.3z"/>
		<path d="M130.5,163.9L130.5,163.9c0-2.7,1.5-4.5,3.5-4.5c2.1,0,3.4,1.8,3.4,4.4c0,0.1,0,0.3,0,0.5h-5.7c0.1,1.9,1.3,2.9,2.6,2.9
			c0.9,0,1.6-0.4,2.2-1l0.7,0.8c-0.8,0.8-1.6,1.3-2.9,1.3C132.2,168.2,130.5,166.6,130.5,163.9z M136.2,163.4
			c-0.1-1.6-0.8-2.9-2.2-2.9c-1.3,0-2.2,1.2-2.3,2.9H136.2z"/>
		<path d="M140.6,159.5h1.2v1.4c0.5-0.8,1.2-1.5,2.4-1.5c1.1,0,1.9,0.6,2.4,1.6c0.5-0.8,1.3-1.6,2.6-1.6c1.6,0,2.7,1.1,2.7,3.1v5.6
			h-1.2v-5.2c0-1.6-0.7-2.4-1.8-2.4c-1.1,0-2,0.9-2,2.4v5.2h-1.2v-5.3c0-1.5-0.7-2.4-1.8-2.4c-1.1,0-2,1-2,2.4v5.2h-1.2V159.5z"/>
		<path d="M154.9,165.6L154.9,165.6c0-1.8,1.3-2.8,3.1-2.8c0.9,0,1.6,0.1,2.2,0.3v-0.5c0-1.4-0.8-2.1-2.2-2.1
			c-0.8,0-1.6,0.3-2.2,0.6l-0.4-1c0.8-0.4,1.6-0.7,2.7-0.7c1,0,1.8,0.3,2.4,0.8c0.5,0.5,0.8,1.3,0.8,2.3v5.5h-1.2v-1.2
			c-0.5,0.8-1.3,1.4-2.6,1.4C156.2,168.2,154.9,167.3,154.9,165.6z M160.3,165.1V164c-0.5-0.2-1.2-0.3-2.1-0.3
			c-1.4,0-2.1,0.7-2.1,1.8v0c0,1.1,0.8,1.7,1.8,1.7C159.2,167.3,160.3,166.3,160.3,165.1z"/>
		<path d="M165.3,166.1v-5.5h-1v-1h1v-2.5h1.2v2.5h2.2v1h-2.2v5.3c0,0.9,0.5,1.2,1.2,1.2c0.3,0,0.7-0.1,1-0.2v1
			c-0.4,0.2-0.8,0.3-1.3,0.3C166.2,168.2,165.3,167.6,165.3,166.1z"/>
		<path d="M171.9,156.4h1.3v1.4h-1.3V156.4z M172,159.5h1.2v8.5H172V159.5z"/>
		<path d="M176.5,163.9v-0.1c0-2.6,1.7-4.4,3.8-4.4c1.2,0,2,0.5,2.7,1.2l-0.7,0.9c-0.5-0.5-1.1-1-2-1c-1.4,0-2.6,1.3-2.6,3.3v0.1
			c0,2,1.2,3.3,2.6,3.3c0.8,0,1.5-0.4,2-1l0.7,0.8c-0.6,0.7-1.5,1.3-2.7,1.3C178.1,168.2,176.5,166.5,176.5,163.9z"/>
		<path d="M185.5,165.6L185.5,165.6c0-1.8,1.3-2.8,3.1-2.8c0.9,0,1.6,0.1,2.2,0.3v-0.5c0-1.4-0.8-2.1-2.2-2.1
			c-0.8,0-1.6,0.3-2.2,0.6l-0.4-1c0.8-0.4,1.6-0.7,2.7-0.7c1,0,1.8,0.3,2.4,0.8c0.5,0.5,0.8,1.3,0.8,2.3v5.5h-1.2v-1.2
			c-0.5,0.8-1.3,1.4-2.6,1.4C186.8,168.2,185.5,167.3,185.5,165.6z M190.9,165.1V164c-0.5-0.2-1.2-0.3-2.1-0.3
			c-1.4,0-2.1,0.7-2.1,1.8v0c0,1.1,0.8,1.7,1.8,1.7C189.8,167.3,190.9,166.3,190.9,165.1z"/>
	</g>
</g>
</svg>
